<?xml version="1.0" encoding="UTF-8" standalone="no"?>
<svg
   xmlns:dc="http://purl.org/dc/elements/1.1/"
   xmlns:cc="http://creativecommons.org/ns#"
   xmlns:rdf="http://www.w3.org/1999/02/22-rdf-syntax-ns#"
   xmlns:svg="http://www.w3.org/2000/svg"
   xmlns="http://www.w3.org/2000/svg"
   xmlns:sodipodi="http://sodipodi.sourceforge.net/DTD/sodipodi-0.dtd"
   xmlns:inkscape="http://www.inkscape.org/namespaces/inkscape"
   width="48"
   height="48"
   version="1"
   id="svg20"
   sodipodi:docname="geany.svg"
   inkscape:version="0.92.4 5da689c313, 2019-01-14">
  <metadata
     id="metadata26">
    <rdf:RDF>
      <cc:Work
         rdf:about="">
        <dc:format>image/svg+xml</dc:format>
        <dc:type
           rdf:resource="http://purl.org/dc/dcmitype/StillImage" />
        <dc:title></dc:title>
      </cc:Work>
    </rdf:RDF>
  </metadata>
  <defs
     id="defs24" />
  <sodipodi:namedview
     pagecolor="#ffffff"
     bordercolor="#666666"
     borderopacity="1"
     objecttolerance="10"
     gridtolerance="10"
     guidetolerance="10"
     inkscape:pageopacity="0"
     inkscape:pageshadow="2"
     inkscape:window-width="707"
     inkscape:window-height="480"
     id="namedview22"
     showgrid="false"
     inkscape:zoom="4.9166667"
     inkscape:cx="14.616333"
     inkscape:cy="24"
     inkscape:window-x="5"
     inkscape:window-y="35"
     inkscape:window-maximized="0"
     inkscape:current-layer="svg20" />
  <path
     fill="#fecd38"
     d="m26 6a3 2 0 0 0 -3 2 3 2 0 0 0 0.01 0.1523 11 4 0 0 0 -8.01 3.8477 11 4 0 0 0 0.035 0.256c0.287-0.159 0.612-0.256 0.965-0.256h20c0.357 0 0.685 0.099 0.975 0.262a11 4 0 0 0 0.025 -0.262 11 4 0 0 0 -8.012 -3.8457 3 2 0 0 0 0.012 -0.1543 3 2 0 0 0 -3 -2z"
     id="path2"
     style="fill:#cddc39;fill-opacity:0.94117647" />
  <path
     fill="#fec006"
     d="m16 12c-1.108 0-2 0.892-2 2 1.8939 6.8101-1.8838 13.48-4 8-0.7179-1.826-1.7137-3.032-4-3h-1c-0.554 0-1 0.446-1 1v2c0 0.554 0.446 1 1 1h1v2c0.37535 6.3465 1.5231 7.2927 4 8 3.4129 1.207 4 2.3044 4 7 0 1.108 0.892 2 2 2h20c1.108 0 2-0.892 2-2v-1h5c0.554 0 1-0.446 1-1v-18c0-0.554-0.446-1-1-1h-5v-5c0-1.108-0.892-2-2-2h-20zm22 10h3v14h-3v-14z"
     id="path4"
     style="fill:#cddc39;fill-opacity:1" />
  <path
     fill="#fff"
     opacity=".2"
     d="m16 12c-1.108 0-2 0.892-2 2 0.039 0.14 0.062 0.278 0.096 0.418 0.249-0.82 1-1.418 1.904-1.418h20c1.108 0 2 0.892 2 2v-1c0-1.108-0.892-2-2-2h-20zm-1.506 6.283c-0.174 4.842-2.837 8.008-4.494 3.717-0.7179-1.826-1.7137-3.032-4-3h-1c-0.554 0-1 0.446-1 1v1c0-0.554 0.446-1 1-1h1c2.2863-0.032 3.2821 1.174 4 3 1.769 4.58 4.686 0.666 4.494-4.717zm23.506 0.717v1h5c0.554 0 1 0.446 1 1v-1c0-0.554-0.446-1-1-1h-5zm0 17v1h3v-1h-3z"
     id="path6" />
  <path
     fill="#fff"
     opacity=".1"
     d="m26 6a3 2 0 0 0 -3 2 3 2 0 0 0 0.01 0.1523 11 4 0 0 0 -8.01 3.8477 11 4 0 0 0 0.035 0.256c0.067-0.037 0.142-0.058 0.213-0.088a11 4 0 0 1 7.762 -3.0157 3 2 0 0 1 -0.01 -0.1523 3 2 0 0 1 3 -2 3 2 0 0 1 3 2 3 2 0 0 1 -0.012 0.1543 11 4 0 0 1 7.768 3.0177c0.072 0.031 0.15 0.051 0.219 0.09a11 4 0 0 0 0.025 -0.262 11 4 0 0 0 -8.012 -3.8457 3 2 0 0 0 0.012 -0.1543 3 2 0 0 0 -3 -2z"
     id="path8"
     style="fill:#cddc39;fill-opacity:1" />
  <path
     opacity=".2"
     d="m16 12c-0.27 0-0.519 0.07-0.752 0.168a11 4 0 0 0 -0.248 0.832 11 4 0 0 0 0.035 0.256c0.287-0.159 0.612-0.256 0.965-0.256h20c0.357 0 0.685 0.099 0.975 0.262a11 4 0 0 0 0.025 -0.262 11 4 0 0 0 -0.244 -0.828c-0.235-0.1-0.484-0.172-0.756-0.172h-20z"
     id="path10" />
  <path
     opacity=".2"
     d="m14.096 14.418c-0.057 0.185-0.096 0.378-0.096 0.582 0.311 1.118 0.456 2.226 0.494 3.283 0.044-1.215-0.071-2.529-0.398-3.865zm-10.096 7.582v1c0 0.554 0.446 1 1 1h1v-1h-1c-0.554 0-1-0.446-1-1zm34 0v1h3v-1h-3zm-32 3v1c0.3754 6.346 1.5231 7.293 4 8 3.413 1.207 4 2.304 4 7 0 1.108 0.892 2 2 2h20c1.108 0 2-0.892 2-2v-1c0 1.108-0.892 2-2 2h-20c-1.108 0-2-0.892-2-2 0-4.696-0.587-5.793-4-7-2.4769-0.707-3.6246-1.654-4-8zm32 15h5c0.554 0 1-0.446 1-1v-1c0 0.554-0.446 1-1 1h-5v1z"
     id="path12" />
  <rect
     fill="#e82d2d"
     width="3.606"
     height="3.606"
     x="12.32"
     y="43.57"
     transform="matrix(.55470 -.83205 .55470 .83205 0 0)"
     id="rect14"
     style="fill:#000000;fill-opacity:1" />
  <rect
     fill="#e82d2d"
     width="3.606"
     height="3.606"
     x="-.3"
     y="30.95"
     transform="matrix(.55470 -.83205 .55470 .83205 0 0)"
     id="rect16"
     style="fill:#000000;fill-opacity:1" />
  <rect
     fill="#e82d2d"
     width="5"
     height="5"
     x="2.92"
     y="35.42"
     transform="matrix(.6 -.8 .6 .8 0 0)"
     id="rect18"
     style="fill:#000000;fill-opacity:1" />
</svg>
